<?xml version="1.0" encoding="UTF-8" standalone="no"?>
<!-- Created with Inkscape (http://www.inkscape.org/) -->

<svg
   width="29mm"
   height="32mm"
   viewBox="0 0 29 32"
   version="1.1"
   id="svg1"
   xml:space="preserve"
   inkscape:version="1.3.2 (091e20e, 2023-11-25, custom)"
   sodipodi:docname="dibujo.svg"
   inkscape:export-filename="dibujo.svg"
   inkscape:export-xdpi="96"
   inkscape:export-ydpi="96"
   xmlns:inkscape="http://www.inkscape.org/namespaces/inkscape"
   xmlns:sodipodi="http://sodipodi.sourceforge.net/DTD/sodipodi-0.dtd"
   xmlns="http://www.w3.org/2000/svg"
   xmlns:svg="http://www.w3.org/2000/svg"><sodipodi:namedview
     id="namedview1"
     pagecolor="#ffffff"
     bordercolor="#eeeeee"
     borderopacity="1"
     inkscape:showpageshadow="0"
     inkscape:pageopacity="0"
     inkscape:pagecheckerboard="0"
     inkscape:deskcolor="#505050"
     inkscape:document-units="mm"
     inkscape:zoom="2.8970539"
     inkscape:cx="61.26914"
     inkscape:cy="111.31999"
     inkscape:window-width="1920"
     inkscape:window-height="1009"
     inkscape:window-x="1042"
     inkscape:window-y="459"
     inkscape:window-maximized="1"
     inkscape:current-layer="layer1" /><defs
     id="defs1" /><g
     inkscape:label="Capa 1"
     inkscape:groupmode="layer"
     id="layer1"><path
       style="display:inline;opacity:0.278431;fill:#800080;stroke-width:0.264583"
       d="m 23.626018,11.82621 c -3.51614,2.14622 -4.83764,-0.63123 -4.83764,-0.63123 l -1.07311,1.43842 2.73986,2.35171 z"
       id="path8"
       sodipodi:nodetypes="ccccc" /><path
       style="display:inline;opacity:0.278431;fill:#f56d16;stroke-width:0.264583;fill-opacity:0.94468087"
       d="m 20.546448,9.1172606 c 0,0 -3.0595,3.5617994 -2.87684,3.6074694 0.18266,0.0457 2.73985,2.23754 2.73985,2.23754 0,0 3.46915,-3.0925 3.19095,-3.15083 -0.50379,-0.10563 -3.05396,-2.6941794 -3.05396,-2.6941794 z"
       id="path5"
       sodipodi:nodetypes="cscsc" /><path
       style="display:inline;opacity:0.258824;fill:#ffff00;stroke-width:0.264583;fill-opacity:1"
       d="m 11.582908,3.9932614 c -0.60364,0.8085 -2.6801996,0.68309 -2.51858,1.67905 0.11794,0.7268 1.45318,-0.0252 2.1311,0.58121 0.81508,0.7291304 -1.16287,0.329 -3.2289496,0.5812104 -1.02743,0.12542 2.7768996,0.8395297 2.7768996,0.8395297 0,0 -2.2205496,0.18729 -3.8512296,0.8584394 -1.1431828,0.4704997 4.0416796,0.0228 2.9471296,0.4977197 -1.7708696,0.7684397 -2.0000396,0.8257497 -2.7801496,1.6066394 -0.27854,0.27881 -0.866071,1.90954 1.10109,1.9452 C 9.370508,12.60416 9.615288,11.78111 9.158898,11.70815 8.4329784,11.59211 7.8373284,11.2261 7.8373284,11.2261 c 0,0 -0.0337,-0.74221 1.1624196,-0.77495 0.64555,-0.0177 0.85943,0.48729 1.96087,1.39074 0.34637,0.28411 -0.25796,0.86542 -0.47558,1.257 -1.06551,1.91723 -1.08103,2.04803 -1.09784,3.16437 -0.0367,2.43751 0.71037,3.55184 0.71037,3.55184 l -0.97652,3.51403 c 0,0 0.0716,0.97566 2.07436,2.49183 0.55588,0.42082 -2.4125896,-0.92813 -2.06652,-0.32289 0.54092,0.946 3.25382,0.34889 4.06847,1.54989 0.71803,1.05856 0.21729,3.88257 0.21729,3.88257 -1.3631,-0.59004 -3.65438,-1.50975 -5.1252396,-2.46183 -1.75846,-1.13824 -4.8434199,-4.0039 -4.8434199,-4.0039 0,0 -2.64162596,-2.91871 -2.64773896,-5.03715 -0.0024,-0.84068 3.37107696,4.66813 2.90605296,3.0352 -0.06759,-0.23735 -2.15779,-4.20278 -2.066527,-6.78078 0.07493,-2.11654 0.353679,-3.36224 1.066504,-4.79182 0.931151,-1.8674494 3.3520869,-4.4533886 5.1330789,-5.5408086 1.1333096,-0.69196 4.2448096,-2.0248 3.7455996,-1.35618 z"
       id="path3"
       sodipodi:nodetypes="sssscssssscssssccssscscsssssss" /><path
       style="display:inline;opacity:0.258824;fill:#ffff00;stroke-width:0.264583"
       d="m 8.6637984,3.6564714 c 0.3509696,-0.49776 -1.4156,-0.31965 -1.4156,-0.31965 0,0 -0.70325,-1.97201 -2.6941789,-1.2786 -1.51112,0.5263 -1.780905,2.78552 -1.780905,2.78552 0,0 -0.317789,-1.72424 0.09133,-2.42021 0.505351,-0.85967 3.5093269,-1.37795 3.0092491,-1.42342 -1.2962371,-0.11786997 -2.6700851,0.0195 -3.5115551,0.92112 -0.672726,0.72084 -0.563898,1.94237 -0.456643,2.9225 0.08179,0.74743 0.821956,2.1005604 0.821956,2.1005604 0,0 -1.55946,2.5188188 -1.96356196,3.9271182 -0.344665,1.20117 -0.365315,3.65314 -0.365315,3.65314 L 2.6361185,9.1818306 c 0.449277,-1.0727694 1.500493,-2.4730192 2.9225091,-3.7444692 0.9919508,-0.88692 2.9491108,-1.55956 3.1051708,-1.78089 z"
       id="path2"
       sodipodi:nodetypes="scscssssccccss" /><path
       style="display:inline;opacity:0.258824;fill:#ffff00;stroke-width:0.281471"
       d="m 18.965358,3.7283414 c -0.39721,-0.49776 1.60207,-0.31965 1.60207,-0.31965 0,0 0.79589,-1.97201 3.0491,-1.2786 1.71019,0.5263 2.01551,2.78552 2.01551,2.78552 0,0 0.35966,-1.72424 -0.10332,-2.42021 -0.57193,-0.85967 -3.97164,-1.37795 -3.40568,-1.42342 1.467,-0.11786997 3.02183,0.0195 3.97416,0.92112 0.76134,0.72084 0.63818,1.94237 0.51679,2.9225 -0.0926,0.74743 -0.93024,2.1005604 -0.93024,2.1005604 0,0 1.7649,2.5188185 2.22224,3.9271182 0.39007,1.20117 0.41344,3.65314 0.41344,3.65314 l -2.5323,-5.3427194 c -0.50847,-1.0727694 -1.69816,-2.4730192 -3.30752,-3.7444692 -1.12263,-0.88692 -3.3376,-1.55956 -3.51422,-1.78089 z"
       id="path2-7"
       sodipodi:nodetypes="scscssssccccss" /><path
       style="opacity:0.258824;fill:#ffff00;stroke-width:0.265938;fill-opacity:1"
       d="m 10.096518,19.82064 c 0,0 4.32455,0.28257 6.14754,-0.0699 0.49189,-0.0951 0.68496,-1.33786 0.68496,-1.33786 0,0 0.20274,-0.88671 0.20614,-0.63024 0.0129,0.87139 -0.22334,3.93304 -0.84541,4.82835 -0.65748,0.94623 -1.92794,1.25784 -3.0595,1.43013 -1.05971,0.16135 -2.07765,-0.10761 -3.10517,-0.4152 -0.59622,-0.17849 -0.91898,-0.59355 -0.91898,-0.59355 l 0.75104,-1.99455 c 0,0 2.17164,1.06682 2.95346,0.88118 2.66795,-0.63351 2.51153,-1.43013 2.51153,-1.43013 0,0 -2.74814,-0.47497 -3.83578,-0.0408 -1.13464,0.45296 -2.38027,2.56676 -2.38027,2.56676 z"
       id="path4"
       sodipodi:nodetypes="cscssssccscscc" /></g></svg>
